<svg width="2828" height="705" viewBox="0 0 2828 705" fill="none" xmlns="http://www.w3.org/2000/svg">
<g clip-path="url(#clip0_212_16580)" filter="url(#filter0_f_212_16580)">
<path opacity="0.15" d="M2553.38 307.88C2611.75 344.97 2659.09 409.451 2571.85 454.973C2562.86 459.666 2478.47 502.248 2351.54 496.96C2196.95 490.52 2165.25 420.812 1994.64 402.716C1809.88 383.119 1701.44 449.425 1611.21 429.056C1504.52 404.97 1491.42 275.071 1684.53 219.396C1917.18 152.325 2396.44 208.151 2553.38 307.88Z" fill="#EBC136"/>
<path opacity="0.15" d="M1099.19 499.639C1153.29 480.569 1212.24 442.148 1175.62 403.285C1171.85 399.278 1135.79 362.654 1051.17 353.834C948.113 343.09 897.007 386.52 778.451 381.996C650.061 377.096 608.807 322.301 541.375 327.114C461.638 332.806 396.216 418.21 497.036 474.149C618.491 541.538 953.717 550.917 1099.19 499.639Z" fill="#EBC136"/>
<path opacity="0.15" d="M1416.74 391.89C1389.94 370.799 1362.56 330.221 1386.04 292.859C1388.46 289.007 1411.42 253.857 1457.33 248.297C1513.25 241.526 1535.94 286.799 1599.45 286.823C1668.24 286.849 1695.83 233.774 1731.2 241.155C1773.01 249.883 1798.99 337.57 1739.59 389.508C1668.05 452.075 1488.81 448.602 1416.74 391.89Z" fill="#EBC136"/>
<path opacity="0.15" d="M1395.66 344.802C1424.95 334.124 1456.88 312.633 1437.12 290.936C1435.09 288.699 1415.62 268.254 1369.86 263.363C1314.11 257.407 1286.42 281.693 1222.28 279.218C1152.83 276.538 1130.58 245.943 1094.09 248.661C1050.95 251.876 1015.46 299.62 1069.93 330.828C1135.56 368.423 1316.9 373.514 1395.66 344.802Z" fill="#EBC136"/>
<path opacity="0.15" d="M2656.89 318.365C2688.48 302.046 2723.21 269.494 2702.74 237.192C2700.63 233.861 2680.44 203.43 2631.71 196.595C2572.36 188.269 2542.08 224.965 2473.67 221.946C2399.59 218.678 2376.71 173.066 2337.67 177.534C2291.51 182.818 2252.22 254.751 2309.48 300.934C2378.47 356.569 2571.96 362.244 2656.89 318.365Z" fill="#8047F8"/>
<path opacity="0.15" d="M2677.76 447.852C2702.32 458.804 2729.22 480.725 2713 502.622C2711.33 504.88 2695.34 525.511 2657.23 530.261C2610.81 536.047 2587.41 511.312 2533.95 513.533C2476.06 515.938 2457.87 546.841 2427.4 543.922C2391.38 540.471 2361.2 491.932 2406.25 460.552C2460.53 422.749 2611.73 418.404 2677.76 447.852Z" fill="#8047F8"/>
<path opacity="0.15" d="M590.082 206.892C611.974 228.616 633.615 270.056 612.302 307.492C610.105 311.351 589.32 346.558 550.229 351.502C502.616 357.524 485.126 311.405 431.337 310.442C373.088 309.4 347.691 362.665 318.025 354.678C282.945 345.234 264.296 256.175 316.576 204.53C379.555 142.315 531.217 148.476 590.082 206.892Z" fill="#EBC136"/>
<path opacity="0.15" d="M1707.48 502.947C1662.4 483.727 1618.58 445.18 1664.67 406.528C1669.42 402.543 1714.32 366.123 1796.47 357.62C1896.53 347.262 1931.47 390.78 2044.21 386.683C2166.3 382.246 2221.54 327.712 2283.45 332.753C2356.64 338.713 2392.4 424.166 2280.85 479.631C2146.46 546.449 1828.71 554.627 1707.48 502.947Z" fill="#EBC136"/>
<path opacity="0.15" d="M1579.32 469.538C1617.02 450.513 1656.53 413.904 1626.43 380.187C1623.32 376.71 1593.82 344.989 1531.44 339.962C1455.46 333.84 1422.11 374.687 1335.4 374.695C1241.49 374.704 1206.6 326.808 1157.94 333.46C1100.39 341.327 1060.34 420.444 1138.7 467.321C1233.09 523.792 1477.97 520.695 1579.32 469.538Z" fill="#8047F8"/>
<path opacity="0.15" d="M1662.14 211.004C1732.76 221.666 1807.75 241.465 1754.21 258.257C1748.69 259.989 1696.14 275.762 1581.39 277.009C1441.63 278.528 1377.74 256.67 1217.83 254.784C1044.67 252.742 983.113 276.767 892.983 272.269C786.407 266.95 707.932 225.145 849.7 202.591C1020.48 175.42 1472.25 182.335 1662.14 211.004Z" fill="#8047F8"/>
<path opacity="0.15" d="M499.867 452.866C533.109 430.714 568.159 388.381 542.216 349.978C539.541 346.018 514.098 309.899 459.532 304.685C393.07 298.335 363.359 345.475 287.426 346.25C205.195 347.089 175.23 292.467 132.532 300.526C82.0439 310.056 45.9943 401.145 114.035 454.214C196.002 518.144 410.48 512.431 499.867 452.866Z" fill="#8047F8"/>
</g>
<defs>
<filter id="filter0_f_212_16580" x="0" y="-90" width="2828" height="864" filterUnits="userSpaceOnUse" color-interpolation-filters="sRGB">
<feFlood flood-opacity="0" result="BackgroundImageFix"/>
<feBlend mode="normal" in="SourceGraphic" in2="BackgroundImageFix" result="shape"/>
<feGaussianBlur stdDeviation="80" result="effect1_foregroundBlur_212_16580"/>
</filter>
<clipPath id="clip0_212_16580">
<rect width="2508" height="544" fill="white" transform="translate(160 70)"/>
</clipPath>
</defs>
</svg>
